<svg xmlns="http://www.w3.org/2000/svg" width="60" height="60" viewBox="0 0 60 60" fill="none"><g clip-path="url(#clip0_897_27879)"><path d="M7.35938 0.164062C6.9375 0.480469 6.91406 0.878906 6.91406 6.45703V11.9531H5.85938C4.74609 11.9531 4.19531 12.1172 4.05469 12.4805C4.01953 12.5859 3.98438 13.6523 3.98438 14.8359V16.9922H3.28125C2.68359 16.9922 2.51953 17.0391 2.28516 17.2852L1.99219 17.5664V20.5078V23.4492L2.28516 23.7305C2.51953 23.9766 2.68359 24.0234 3.28125 24.0234H3.98438V40.957V57.8906H1.99219H0V58.9453V60H30H60V58.9453V57.8906H58.0078H56.0156V40.957V24.0234H56.7188C57.3164 24.0234 57.4805 23.9766 57.7148 23.7305L58.0078 23.4492V20.5078V17.5664L57.7148 17.2852C57.4805 17.0391 57.3164 16.9922 56.7188 16.9922H56.0156V14.7891C56.0039 11.9883 55.9805 11.9531 54.1523 11.9531H53.0977L53.0625 6.28125L53.0273 0.609375L52.7461 0.304688L52.4648 0H30.0117C11.7773 0.0117188 7.52344 0.0351562 7.35938 0.164062ZM50.9766 7.03125V11.9531H30H9.02344V7.03125V2.10938H30H50.9766V7.03125ZM53.9062 15.5273V16.9922H30H6.09375V15.5273V14.0625H30H53.9062V15.5273ZM55.8984 20.5078V21.9141H30H4.10156V20.5078V19.1016H30H55.8984V20.5078ZM53.9062 40.957V57.8906H30H6.09375V40.957V24.0234H30H53.9062V40.957Z" fill="#31322F"></path><path d="M15.5859 6.73828V10.0781H16.2305H16.875V8.67188V7.26562H18.3984H19.9219V8.67188V10.0781H20.5664H21.2109V6.73828V3.39844H20.5664H19.9219V4.80469V6.21094H18.3984H16.875V4.80469V3.39844H16.2305H15.5859V6.73828Z" fill="#31322F"></path><path d="M24.2265 3.56298C23.1249 3.96141 22.3866 4.81688 22.1405 5.9536C21.789 7.66454 22.6562 9.3872 24.121 9.91454C24.8007 10.1606 26.2187 10.1138 26.8398 9.83251C28.0116 9.30516 28.6093 8.3911 28.6913 7.02001C28.8202 4.84032 27.5077 3.3872 25.3983 3.39891C24.9999 3.41063 24.4726 3.48095 24.2265 3.56298ZM26.371 4.74657C27.3671 5.2622 27.7304 7.0786 27.039 8.09813C26.6523 8.66063 26.1132 8.94188 25.3632 8.94188C24.1093 8.94188 23.3827 8.02782 23.4648 6.56298C23.5116 5.66063 23.7108 5.28563 24.3788 4.8286C24.8358 4.52391 25.8437 4.47704 26.371 4.74657Z" fill="#31322F"></path><path d="M28.7109 3.98438V4.57031H29.707H30.7031V7.32422V10.0781H31.3477H31.9922V7.32422V4.57031H32.9883H33.9844V3.98438V3.39844H31.3477H28.7109V3.98438Z" fill="#31322F"></path><path d="M34.5703 6.73828V10.0781H36.6797H38.7891V9.55078V9.02344H37.3828H35.9766V8.14453V7.26562H37.0898H38.2031V6.73828V6.21094H37.0898H35.9766V5.39062V4.57031H37.3828H38.7891V3.98438V3.39844H36.6797H34.5703V6.73828Z" fill="#31322F"></path><path d="M39.7266 6.73828V10.0781H41.7188H43.7109V9.49219V8.90625H42.4219H41.1328V6.15234V3.39844H40.4297H39.7266V6.73828Z" fill="#31322F"></path><path d="M9.29688 27.2344L8.96875 27.5156V32.9648V38.4141L9.25 38.7188L9.53125 39.0234H13.4688C17.6055 39.0117 17.6289 39.0117 17.9102 38.4727C18.0977 38.1211 18.1094 27.9141 17.9219 27.5039C17.6875 26.9883 17.4414 26.9531 13.4219 26.9531H9.625L9.29688 27.2344ZM15.9414 32.9883V36.9141H13.4805H11.0195V32.9883V29.0625H13.4805H15.9414V32.9883Z" fill="#31322F"></path><path d="M26.2812 27.2344L25.9531 27.5156V32.9648V38.4141L26.2344 38.7188L26.5156 39.0234H30.4648H34.4141L34.7305 38.7188L35.0352 38.4023V33.0938C35.0352 29.4492 35 27.6914 34.9062 27.5039C34.6719 26.9883 34.4258 26.9531 30.4062 26.9531H26.6094L26.2812 27.2344ZM32.9258 32.9883V36.9141H30.4648H28.0039V32.9883V29.0625H30.4648H32.9258V32.9883Z" fill="#31322F"></path><path d="M42.4805 27.0938C41.9531 27.3984 41.9648 27.3398 41.9531 33V38.4023L42.2578 38.7188L42.5742 39.0234H46.5234H50.4727L50.7539 38.7188L51.0352 38.4141L51.0703 33.3633C51.0937 30.5742 51.0703 28.125 51.0352 27.9023C50.9883 27.6914 50.8359 27.3867 50.6836 27.2344L50.4023 26.9531H46.5586C43.8867 26.9648 42.6445 27 42.4805 27.0938ZM48.9844 32.9883V36.9141H46.5234H44.0625V32.9883V29.0625H46.5234H48.9844V32.9883Z" fill="#31322F"></path><path d="M9.63281 43.0199C8.91797 43.2308 8.90625 43.3363 8.90625 48.9847C8.90625 54.7035 8.90625 54.7269 9.69141 54.9613C9.99609 55.055 11.332 55.0785 13.8047 55.055L17.4844 55.0199L17.7656 54.6917L18.0469 54.3636V49.0316C18.0469 45.4339 18 43.6175 17.918 43.4535C17.6484 42.9496 17.2266 42.891 13.5117 42.9027C11.5898 42.9027 9.84375 42.9613 9.63281 43.0199ZM15.9375 48.9847V52.9691H13.4766H11.0156V48.9847V45.0003H13.4766H15.9375V48.9847Z" fill="#31322F"></path><path d="M26.7663 42.9729C26.6256 42.9963 26.3913 43.1487 26.2389 43.3127L25.9577 43.6174L25.9225 48.7268C25.8991 52.2658 25.9225 53.9885 26.0163 54.2932C26.2389 55.0666 26.403 55.0901 30.7272 55.0549L34.4772 55.0197L34.7585 54.6916L35.0397 54.3635V49.0315C35.0397 45.4338 34.9928 43.6174 34.9108 43.4533C34.6413 42.9377 34.2194 42.8908 30.5045 42.9026C28.5827 42.9143 26.8952 42.9494 26.7663 42.9729ZM32.9303 48.9846V52.969H30.4694H28.0085V48.9846V45.0002H30.4694H32.9303V48.9846Z" fill="#31322F"></path><path d="M42.5742 43.0549C42.375 43.1487 42.1523 43.3244 42.082 43.4651C42 43.6174 41.9531 45.4338 41.9531 49.0315V54.3635L42.2344 54.6916L42.5156 55.0197L46.2656 55.0549C50.5898 55.0901 50.7539 55.0666 50.9766 54.2932C51.0703 53.9885 51.0938 52.2776 51.0703 48.7268L51.0352 43.594L50.707 43.2776L50.3906 42.9494L46.6641 42.926C43.6758 42.9026 42.8789 42.926 42.5742 43.0549ZM48.9844 48.9846V52.969H46.5234H44.0625V48.9846V45.0002H46.5234H48.9844V48.9846Z" fill="#31322F"></path></g><defs><clipPath id="clip0_897_27879"><rect width="60" height="60" fill="white"></rect></clipPath></defs></svg>