<svg xmlns="http://www.w3.org/2000/svg" width="60" height="60" viewBox="0 0 60 60" fill="none"><g clip-path="url(#clip0_897_27855)"><path d="M11.4856 0.246094C10.8411 0.539062 8.59106 2.77734 8.26293 3.45703C8.052 3.89062 8.02856 4.23047 7.9934 7.85156C7.96996 11.3086 7.98168 11.8359 8.15746 12.3047C8.39184 12.9375 10.5481 15.1992 11.3684 15.6797L11.8957 15.9961H17.4036C22.8528 15.9961 22.9114 15.9961 23.3918 15.7383C23.8957 15.4688 24.5403 14.8125 24.7512 14.3438C24.8684 14.0859 24.9504 14.0625 25.7239 14.0625C27.0598 14.0625 27.634 13.8281 28.6536 12.8906L29.5325 12.0703H31.759C34.3254 12.0703 34.4309 12.0469 35.4036 11.1562L36.0598 10.5586L36.5754 11.0977C37.384 11.9297 37.7825 12.0703 39.47 12.0703C41.1926 12.0703 41.5207 11.9648 42.3997 11.0977L43.009 10.5L43.6887 11.168C44.0754 11.5547 44.5325 11.8828 44.7668 11.9531C45.3997 12.1289 47.6379 12.1055 48.1067 11.9062C48.6223 11.6836 51.2004 9.73828 51.5989 9.26953C52.1145 8.64844 52.1731 7.53516 51.7278 6.84375C51.5286 6.55078 48.8215 4.45312 48.2004 4.125C48.0129 4.01953 45.552 3.98438 38.8489 3.98438C32.2278 3.98438 29.6848 3.94922 29.4973 3.85547C29.3567 3.77344 28.8997 3.38672 28.4778 3C27.5754 2.15625 27.1418 1.99219 25.8176 1.99219C24.8801 1.99219 24.8684 1.99219 24.7278 1.64062C24.5286 1.16016 23.8372 0.480469 23.2747 0.222656C22.8293 0.0234375 22.4075 0 17.4036 0C12.2356 0 11.9895 0.0117188 11.4856 0.246094ZM22.4426 2.17969C22.9465 2.37891 22.97 2.64844 22.97 8.08594V13.2656L22.6301 13.6055L22.2903 13.9453H17.3918H12.4934L11.2864 12.7383L10.0793 11.5312V7.98047V4.41797L11.2395 3.26953L12.3879 2.10938H17.3215C20.0286 2.10938 22.3372 2.14453 22.4426 2.17969ZM27.259 4.80469C28.6418 6.12891 27.7395 6.02344 38.2629 6.09375L47.4153 6.15234L48.6106 7.03125C49.2668 7.51172 49.7942 7.94531 49.8059 7.98047C49.8059 8.02734 49.2317 8.48438 48.5286 9.01172L47.2629 9.96094H46.4075H45.5637L44.8137 9.26953C43.4778 8.01562 42.5403 8.01562 41.2043 9.26953L40.4543 9.96094H39.4934H38.5207L37.7942 9.26953C36.5051 8.02734 35.5325 8.02734 34.2786 9.26953L33.5637 9.96094H31.3489C28.7122 9.96094 28.4778 10.0312 27.3411 11.168C26.6145 11.8711 26.6028 11.8828 25.8411 11.9297L25.0793 11.9766V8.03906V4.10156H25.8059H26.5207L27.259 4.80469Z" fill="#31322F"></path><path d="M13.2422 4.06615C12.8203 4.23021 12.3984 4.62865 12.1875 5.03881C11.9766 5.44896 11.9531 5.74193 11.9531 7.95677C11.9531 9.4099 12 10.5466 12.082 10.7458C12.2461 11.1911 12.75 11.7185 13.207 11.906C13.6523 12.1052 16.0078 12.1286 16.6406 11.9529C17.1211 11.824 17.7422 11.238 17.918 10.7458C18 10.5466 18.0469 9.4099 18.0469 7.95677C18.0469 5.20287 17.9648 4.86302 17.2031 4.31224C16.8398 4.06615 16.6875 4.04271 15.1172 4.01927C14.1797 4.00756 13.3359 4.03099 13.2422 4.06615ZM15.9375 8.02709V9.96068H15H14.0625V8.02709V6.09349H15H15.9375V8.02709Z" fill="#31322F"></path><path d="M12.7734 18.0586C12.082 18.1992 11.1797 18.6445 10.5703 19.1719C9.65625 19.957 9.33984 20.5781 8.26172 23.8008L7.24219 26.8242L6.71484 26.4844C5.97656 26.0156 5.10938 25.8633 3.57422 25.9219C2.10938 25.9805 1.48828 26.1914 0.832031 26.8476C0.234375 27.4336 0 28.043 0 29.0039C0 29.9883 0.246094 30.5742 0.890625 31.1953C1.51172 31.793 2.08594 32.0039 3.30469 32.0742L4.34766 32.1445L2.35547 34.1484C1.13672 35.3789 0.292969 36.3281 0.175781 36.5859C0.0234375 36.9609 0 38.0156 0 44.4141C0 51.7031 0 51.8086 0.246094 52.3008C0.5625 52.9336 1.00781 53.4023 1.54688 53.6836L1.99219 53.9062V55.8516C1.99219 57.2461 2.03906 57.8906 2.15625 58.1719C2.39062 58.7461 3.10547 59.4844 3.67969 59.7539C4.14844 59.9883 4.37109 60 8.47266 60C13.2539 60 13.1953 60.0117 14.0625 59.2148C14.8945 58.4766 15 58.125 15 55.9219V54.0234H30H45V55.9219C45 58.0898 45.1055 58.4414 45.8906 59.2031C46.7227 60 46.7344 60 51.5039 60C56.2383 60 56.2031 60 57.0469 59.2383C57.9023 58.4766 58.0078 58.1016 58.0078 55.8633V53.9062L58.4531 53.6836C59.0273 53.3906 59.4609 52.9101 59.7539 52.2656C59.9883 51.75 60 51.5273 60 44.3789C60 38.0039 59.9766 36.9609 59.8242 36.5859C59.707 36.3281 58.8633 35.3789 57.6445 34.1484L55.6523 32.1445L56.6953 32.0742C57.9141 32.0039 58.4883 31.793 59.1094 31.1953C59.7539 30.5742 60 29.9883 60 29.0039C60 28.043 59.7656 27.4336 59.168 26.8476C58.5117 26.1914 57.8906 25.9805 56.4258 25.9219C54.8906 25.8633 54.0234 26.0156 53.2852 26.4844L52.7578 26.8242L51.7383 23.8008C51.0469 21.75 50.6016 20.5781 50.332 20.1914C49.5938 19.0898 48.3867 18.2812 47.1211 18.0469C46.3359 17.8945 13.5352 17.9062 12.7734 18.0586ZM46.9805 20.2266C47.4258 20.3555 47.7656 20.5664 48.1641 20.9648C48.7148 21.5156 48.7148 21.5391 50.1328 25.7578L51.5391 30H30H8.46094L9.86719 25.7578C11.2852 21.5273 11.2852 21.5156 11.8359 20.9648C12.8086 19.9922 11.4492 20.0508 29.9531 20.0508C44.5664 20.0391 46.4297 20.0625 46.9805 20.2266ZM5.26172 28.1367C5.73047 28.3008 5.97656 28.7695 5.97656 29.4727V30.0234L4.34766 29.9766C2.8125 29.9414 2.69531 29.9297 2.41406 29.6602C1.88672 29.168 2.09766 28.3477 2.8125 28.0898C3.14062 27.9726 4.88672 28.0078 5.26172 28.1367ZM57.5859 28.3477C57.9961 28.7344 57.9961 29.2734 57.5859 29.6602C57.3047 29.9297 57.1875 29.9414 55.6523 29.9766L54.0234 30.0234V29.4844C54.0234 28.2891 54.457 27.9961 56.1562 28.0312C57.1641 28.0664 57.3164 28.1016 57.5859 28.3477ZM55.2188 34.7695L57.8906 37.4414V44.4375V51.4336L57.5859 51.668L57.2695 51.9141H30H2.73047L2.41406 51.668L2.10938 51.4336V44.4375V37.4414L4.76953 34.7812L7.44141 32.1094H30H52.5586L55.2188 34.7695ZM12.8906 55.6875C12.8906 57.2344 12.8672 57.3633 12.6328 57.6211L12.3867 57.8906H8.50781C3.67969 57.8906 4.10156 58.1016 4.10156 55.6992V54.0234H8.49609H12.8906V55.6875ZM55.8984 55.6875C55.8984 57.2344 55.875 57.3633 55.6406 57.6211L55.3945 57.8906H51.5156C46.6875 57.8906 47.1094 58.1016 47.1094 55.6992V54.0234H51.5039H55.8984V55.6875Z" fill="#31322F"></path><path d="M5.09766 38.1562C4.08984 38.6836 3.98438 38.9883 3.98438 41.5781C3.98438 43.5703 3.99609 43.6992 4.25391 44.0742C4.39453 44.2852 4.69922 44.5898 4.91016 44.7305C5.30859 45 5.32031 45 9.85547 45C12.7852 45 14.5195 44.9531 14.7305 44.8711C15.4688 44.6016 16.043 43.6992 16.0547 42.8438C16.0547 41.9531 15.7148 41.4961 13.7578 39.8906C12.7617 39.0586 11.7773 38.2969 11.5664 38.1797C11.0273 37.8867 5.64844 37.8633 5.09766 38.1562ZM12.2109 41.3789C13.0664 42.0938 13.8164 42.7266 13.875 42.7852C13.9453 42.8438 12.4102 42.8906 10.043 42.8906H6.09375V41.4844V40.0781H8.36719H10.6406L12.2109 41.3789Z" fill="#31322F"></path><path d="M18.2252 38.1328C17.7916 38.332 17.2877 38.8594 17.1236 39.293C16.9478 39.7617 16.9595 40.7344 17.1588 41.1094C17.2525 41.2852 17.5572 41.6367 17.8384 41.9062C18.7056 42.7266 21.0142 44.6016 21.4127 44.8125C21.7525 44.9766 22.6314 45 30.0025 45C37.3736 45 38.2525 44.9766 38.5923 44.8125C38.9908 44.6016 41.2994 42.7266 42.1666 41.9062C42.8345 41.2734 43.0103 40.9219 43.0103 40.1953C43.0103 39.2109 42.4947 38.4023 41.6861 38.0977C41.4634 38.0039 37.7369 37.9688 29.9673 37.9688C20.7095 37.9805 18.5064 38.0039 18.2252 38.1328ZM40.8892 40.1602C40.8892 40.2188 40.1627 40.8516 39.2838 41.5664L37.69 42.8906H30.0025H22.3267L20.7213 41.543C19.8306 40.793 19.1041 40.1602 19.1041 40.1367C19.1041 40.1016 24.0142 40.0781 30.0025 40.0781C36.0025 40.0781 40.9009 40.1133 40.8892 40.1602Z" fill="#31322F"></path><path d="M48.4336 38.1797C48.2227 38.2852 47.2383 39.0586 46.2422 39.8906C44.2852 41.4961 43.9453 41.9531 43.9453 42.8438C43.957 43.6992 44.5312 44.6016 45.2695 44.8711C45.4805 44.9531 47.2148 45 50.1445 45C54.6797 45 54.6914 45 55.0898 44.7305C55.3008 44.5898 55.6055 44.2852 55.7461 44.0742C56.0039 43.6992 56.0156 43.5703 56.0156 41.5781C56.0156 39.1992 55.9453 38.8945 55.2422 38.3672L54.8086 38.0273L51.8086 38.0039C49.1367 37.9805 48.7617 37.9922 48.4336 38.1797ZM53.9062 41.4844V42.8906H49.957C47.5664 42.8906 46.0547 42.8438 46.125 42.7852C46.1836 42.7266 46.9453 42.0938 47.8125 41.3789L49.3945 40.0781H51.6445H53.9062V41.4844Z" fill="#31322F"></path><path d="M5.33436 48.1875C5.15858 48.3516 5.00623 48.6328 4.95936 48.8906C4.90077 49.2656 4.94764 49.3711 5.25233 49.6875L5.60389 50.0391H9.51795C13.6195 50.0273 13.643 50.0273 13.9242 49.4883C14.1586 49.0547 14.0883 48.6328 13.725 48.2695L13.3851 47.9297H9.50624C5.66249 47.9297 5.63905 47.9297 5.33436 48.1875Z" fill="#31322F"></path><path d="M20.3344 48.1875C20.1586 48.3516 20.0062 48.6328 19.9594 48.8906C19.9008 49.2656 19.9476 49.3711 20.2523 49.6875L20.6039 50.0391H30.0023H39.4008L39.7523 49.6875C40.057 49.3711 40.1039 49.2656 40.0453 48.8906C39.9984 48.6328 39.8461 48.3516 39.6703 48.1875L39.3656 47.9297H30.0023H20.639L20.3344 48.1875Z" fill="#31322F"></path><path d="M46.2726 48.2695C45.9093 48.6328 45.839 49.0547 46.0734 49.4883C46.3546 50.0273 46.3781 50.0273 50.4796 50.0391H54.3937L54.7453 49.6875C55.05 49.3711 55.0968 49.2656 55.0382 48.8906C54.9914 48.6328 54.839 48.3516 54.6632 48.1875C54.3585 47.9297 54.3351 47.9297 50.4914 47.9297H46.6125L46.2726 48.2695Z" fill="#31322F"></path></g><defs><clipPath id="clip0_897_27855"><rect width="60" height="60" fill="white"></rect></clipPath></defs></svg>