<svg xmlns="http://www.w3.org/2000/svg" width="60" height="60" viewBox="0 0 60 60" fill="none"><path d="M46.0312 5.0394C45.5977 5.15659 44.4492 5.57846 20.1562 14.6605C10.1836 18.3753 6.01172 19.8871 5.33203 20.0042C2.91797 20.4378 0.914062 22.1371 0.234375 24.3519C0.0234375 25.0316 0 25.4417 0 28.4652V31.8285L0.351562 32.1683C0.703125 32.4964 0.761719 32.5199 2.21484 32.5902C3.5625 32.6488 3.80859 32.6956 4.48828 33.0121C6.32812 33.8792 7.38281 35.5199 7.38281 37.5003C7.38281 39.4808 6.32812 41.1214 4.48828 41.9886C3.80859 42.305 3.5625 42.3519 2.21484 42.4105C0.761719 42.4808 0.703125 42.5042 0.351562 42.8324L0 43.1722V46.5355C0 50.3558 0.0703125 50.8011 0.914062 52.1019C1.72266 53.3441 2.78906 54.1761 4.33594 54.7738L4.98047 55.0199L29.5312 55.055C47.0156 55.0785 54.3047 55.055 54.8438 54.9613C56.0977 54.7386 57.1992 54.1527 58.1719 53.18C59.8359 51.4925 60 50.8831 60 46.4652V43.1722L59.6484 42.8324C59.2969 42.5042 59.2383 42.4808 57.7617 42.4105C56.3203 42.3402 56.2031 42.3167 55.3828 41.9066C54.3633 41.4144 53.5078 40.5472 53.0039 39.516C52.6992 38.9066 52.6758 38.7425 52.6758 37.5003C52.6758 36.2581 52.6992 36.0941 53.0039 35.4847C53.5078 34.4535 54.3633 33.5863 55.3828 33.0941C56.2031 32.6839 56.3203 32.6605 57.7617 32.5902C59.2383 32.5199 59.2969 32.4964 59.6484 32.1683L60 31.8285V28.5355C60 24.1761 59.8359 23.5785 58.2539 21.8792C57.668 21.2581 57.293 20.9769 56.5547 20.6253C56.0273 20.3792 55.418 20.1331 55.1836 20.098C54.668 20.0042 54.9375 20.6839 52.207 12.6097C51.2109 9.64487 50.2617 7.00815 50.0977 6.7269C49.3594 5.47299 47.4609 4.68784 46.0312 5.0394ZM47.625 7.87534C47.8711 8.08627 48.3281 9.34018 49.9102 14.0277L51.9023 19.9222L32.7773 19.9105C22.2539 19.9105 13.7227 19.8753 13.8164 19.8402C13.9102 19.805 21.293 17.0394 30.2227 13.6996C40.4648 9.87924 46.6289 7.62924 46.8984 7.62924C47.1914 7.61752 47.4258 7.69955 47.625 7.87534ZM19.9219 23.2621C19.9219 24.1761 20.1328 24.6449 20.6484 24.9144C21.1289 25.1605 21.7383 25.055 22.1719 24.6566C22.4766 24.3519 22.5 24.2699 22.5 23.4144V22.5003L38.4727 22.5238C53.6484 22.5589 54.457 22.5706 54.9844 22.7699C55.7227 23.0628 56.6602 23.9066 57.0469 24.6566C57.3516 25.2425 57.3633 25.3128 57.3984 27.6214L57.4336 30.0003H56.8711C54.5742 30.0003 51.8789 31.8167 50.7656 34.1019C49.6758 36.3519 49.6641 38.6722 50.7539 40.8988C51.4102 42.2347 52.7578 43.5941 54.0352 44.2152C55.0547 44.7191 56.0742 45.0003 56.8711 45.0003H57.4336L57.3984 47.3675C57.3633 49.6878 57.3516 49.7581 57.0469 50.3441C56.6602 51.0941 55.7227 51.9378 54.9844 52.2308C54.457 52.43 53.6484 52.4417 38.4727 52.4769L22.5 52.5003V51.5863C22.5 50.7308 22.4766 50.6488 22.1719 50.3441C21.7383 49.9456 21.1289 49.8402 20.6484 50.0863C20.1328 50.3558 19.9219 50.8246 19.9219 51.7386V52.5121L12.75 52.4769C6.15234 52.4417 5.51953 52.4183 5.01562 52.2191C4.27734 51.9378 3.35156 51.0941 2.95312 50.3441C2.64844 49.7581 2.63672 49.6878 2.60156 47.3792L2.56641 45.0003H3.12891C5.42578 45.0003 8.14453 43.1722 9.23438 40.8871C10.3242 38.6136 10.3242 36.3871 9.23438 34.1136C8.13281 31.8167 5.42578 30.0003 3.12891 30.0003H2.56641L2.60156 27.6214C2.63672 25.3246 2.64844 25.2425 2.95312 24.6683C3.52734 23.5785 4.55859 22.8167 5.74219 22.6175C6.03516 22.5706 9.33984 22.5238 13.1016 22.5121L19.9219 22.5003V23.2621Z" fill="#31322F"></path><path d="M20.3677 29.168L19.981 29.5079L19.9459 32.0743C19.9107 34.5938 19.9107 34.6407 20.1802 35.0391C20.649 35.7305 21.6216 35.8126 22.2193 35.2149C22.5006 34.9337 22.5006 34.9337 22.5006 32.2266V29.5079L22.1607 29.168C21.6685 28.6876 20.9068 28.6876 20.3677 29.168Z" fill="#31322F"></path><path d="M20.6608 39.4932C20.5085 39.5518 20.2858 39.7744 20.1569 39.9854C19.9343 40.3486 19.9226 40.5361 19.946 42.9268L19.9812 45.4932L20.3679 45.833C20.9069 46.3135 21.6687 46.3135 22.1608 45.833L22.5007 45.4932V42.833C22.5007 41.2393 22.4538 40.0908 22.3835 39.9502C22.1257 39.4814 21.2702 39.2471 20.6608 39.4932Z" fill="#31322F"></path></svg>